<svg xmlns="http://www.w3.org/2000/svg" width="100%" height="100%" viewBox="150 510 760 190">
  <!-- Primary (Sleek Teal) Text Elements ('C', 'o', 'm', 'i' dot, and 'B' bottom fold) -->
  <path d="M 774.50 628.34 L 773.87 689.00 L 749.00 689.00 L 749.00 594.00 L 774.00 594.00 L 774.00 605.42 L 778.25 601.31 C785.00,594.79 794.79,591.00 804.87,591.00 C814.01,591.00 825.16,596.77 829.18,603.59 L 831.24 607.07 L 836.43 602.16 C842.78,596.15 845.97,594.45 854.71,592.39 C873.45,587.98 889.32,595.59 895.21,611.80 C896.70,615.90 896.92,621.13 896.96,652.75 L 897.00 689.00 L 872.13 689.00 L 871.81 657.75 C871.51,627.40 871.43,626.38 869.21,622.21 C866.16,616.50 861.91,614.01 855.20,614.00 C849.27,614.00 845.78,615.47 841.80,619.66 C836.27,625.49 836.00,627.33 836.00,659.47 L 836.00 689.00 L 810.00 689.00 L 809.98 657.75 C809.96,629.10 809.80,626.15 808.04,622.27 C805.46,616.59 801.06,614.00 794.00,614.02 C786.71,614.04 781.51,617.01 777.54,623.43 Z M 695.07 689.40 C686.63,691.89 674.05,691.48 665.10,688.43 C654.97,684.98 650.03,681.88 643.64,674.98 C629.58,659.79 626.38,638.37 635.35,619.48 C643.94,601.40 660.75,591.03 681.50,591.03 C696.02,591.03 707.78,595.62 717.09,604.93 C736.09,623.93 736.78,655.46 718.63,675.65 C713.68,681.15 704.08,686.76 695.07,689.40 Z M 580.36 689.43 C572.64,691.40 555.48,691.39 548.00,689.42 C544.97,688.62 538.27,685.94 533.10,683.45 C525.43,679.77 522.27,677.51 515.98,671.22 C504.38,659.60 498.47,646.07 497.33,628.51 C494.52,585.06 525.83,552.86 568.50,555.33 C584.89,556.28 597.56,561.39 608.85,571.60 C614.22,576.46 619.83,583.63 618.86,584.39 C616.07,586.57 599.05,598.00 598.60,598.00 C598.27,598.00 596.37,596.21 594.39,594.01 C581.66,579.92 563.59,576.34 547.03,584.62 C538.75,588.76 533.01,594.80 528.61,604.00 C525.64,610.21 525.50,611.07 525.50,623.05 C525.50,635.55 525.51,635.63 529.27,643.24 C535.25,655.34 545.10,662.65 558.85,665.21 C570.34,667.35 582.85,662.93 592.41,653.37 C595.46,650.32 598.33,647.97 598.78,648.16 C601.61,649.33 618.99,660.65 618.99,661.32 C619.01,663.12 612.79,671.00 607.88,675.42 C601.96,680.74 589.43,687.12 580.36,689.43 Z M 291.23 685.81 L 283.50 689.50 L 224.75 689.78 L 166.00 690.06 L 166.00 683.25 C166.00,676.04 167.26,673.07 171.30,670.76 C172.94,669.82 184.67,669.37 217.00,669.00 C260.37,668.50 260.51,668.49 265.36,666.11 C275.57,661.08 281.25,652.30 281.25,641.57 C281.24,634.22 279.15,628.85 274.21,623.50 C272.18,621.30 271.32,620.21 272.30,621.08 C273.97,622.55 274.68,622.08 282.87,614.08 C287.70,609.36 292.34,604.38 293.20,603.00 L 294.75 600.50 L 300.40 604.39 C307.32,609.15 311.05,613.74 315.19,622.59 C317.98,628.55 318.42,630.67 318.79,639.94 C319.15,648.89 318.88,651.49 317.03,657.00 C312.60,670.16 304.10,679.66 291.23,685.81 Z M 671.50 665.71 C681.50,670.51 694.54,666.95 700.81,657.73 C704.74,651.95 706.00,647.78 706.00,640.60 C706.00,629.84 699.34,619.15 690.28,615.35 C685.98,613.55 676.80,613.64 672.27,615.53 C651.11,624.37 650.63,655.70 671.50,665.71 Z M 253.68 632.06 C249.79,633.82 246.61,633.96 208.22,633.98 C206.49,633.98 204.84,633.98 203.24,633.98 C174.11,634.00 166.85,634.01 166.03,631.70 C165.75,630.94 166.18,629.92 166.76,628.56 C166.86,628.34 166.96,628.11 167.06,627.86 C167.76,626.16 169.73,623.92 171.42,622.89 C174.31,621.12 177.20,621.01 217.75,621.00 C220.41,621.00 222.92,621.00 225.27,621.00 C253.15,620.99 260.30,620.98 260.99,623.09 C261.22,623.81 260.69,624.79 259.98,626.10 C259.81,626.42 259.62,626.76 259.43,627.13 C258.50,628.94 256.19,630.92 253.68,632.06 Z M 253.36 656.62 C250.74,657.72 241.49,658.00 208.03,658.00 L 166.00 658.00 L 166.00 655.40 C166.00,653.78 167.28,651.52 169.40,649.40 L 172.80 646.00 L 216.90 646.00 C259.27,646.00 261.00,646.07 261.00,647.87 C261.00,650.61 257.14,655.05 253.36,656.62 Z M 372.03 575.99 C365.93,579.10 360.09,578.30 355.16,573.69 C349.72,568.62 348.65,562.57 352.01,555.97 C355.80,548.55 366.28,545.71 373.10,550.27 C382.52,556.56 381.91,570.94 372.03,575.99 Z" fill="#006A61"/>
  
  <!-- Primary Text (Charcoal Black) Elements ('B' top outline, 'i' stem, 'l', 'l') -->
  <path d="M 300.53 604.47 C304.74,607.38 307.78,610.26 310.47,614.13 C307.77,610.24 304.70,607.35 300.40,604.39 L 294.75 600.50 L 293.20 603.00 C292.34,604.38 287.70,609.36 282.87,614.08 C274.68,622.08 273.97,622.55 272.30,621.08 C271.32,620.21 272.18,621.30 274.21,623.50 C276.97,626.50 278.85,629.49 279.96,632.84 C278.79,629.39 276.77,626.33 273.70,623.17 C267.03,616.28 261.15,613.79 250.22,613.21 C245.12,612.94 240.75,612.40 240.51,612.01 C240.26,611.62 246.33,604.74 253.99,596.72 C261.90,588.44 268.61,580.50 269.53,578.33 C273.37,569.29 269.01,557.80 260.02,553.25 C255.79,551.11 254.45,551.00 232.29,551.00 L 209.00 551.00 L 209.00 569.30 C209.00,582.20 208.65,587.95 207.80,588.80 C206.95,589.65 200.76,590.00 186.30,590.00 L 166.00 590.00 L 166.00 520.00 L 213.75 520.02 C265.43,520.04 269.58,520.38 280.36,525.47 C287.22,528.72 294.78,535.42 299.00,542.00 C308.66,557.06 308.45,580.03 298.52,594.71 C296.59,597.58 295.00,600.09 295.00,600.29 C295.00,600.50 297.49,602.38 300.53,604.47 Z M 426.00 552.00 L 426.00 689.00 L 400.00 689.00 L 400.00 552.00 Z M 475.00 552.00 L 475.00 689.00 L 450.00 689.00 L 450.00 552.00 Z M 378.00 592.00 L 378.00 689.00 L 352.00 689.00 L 352.00 592.00 Z" fill="#1A1C1E"/>
</svg>
