<svg xmlns="http://www.w3.org/2000/svg" width="100%" height="100%" viewBox="160 200 745 550">
  <!-- Primary (Sleek Teal) Elements -->
  <path d="M 635.93 527.51 C626.20,529.56 612.21,529.33 603.00,526.97 C591.26,523.95 578.09,516.83 569.59,508.89 C565.56,505.13 561.92,502.38 561.48,502.78 C561.04,503.18 561.00,502.94 561.40,502.25 C561.86,501.45 561.46,500.97 560.31,500.92 C559.31,500.88 559.02,500.63 559.65,500.37 C560.37,500.07 559.49,497.98 557.26,494.70 C552.88,488.25 549.62,481.07 547.35,472.83 C544.92,464.02 544.93,442.97 547.37,434.00 C556.35,401.07 584.94,378.69 619.50,377.54 C652.85,376.42 682.70,398.50 693.16,432.00 C695.18,438.47 695.49,441.49 695.44,454.00 C695.39,466.94 695.09,469.36 692.72,476.50 C689.18,487.12 683.97,495.72 675.68,504.62 C664.56,516.55 651.05,524.33 635.93,527.51 ZM 607.73 511.50 C611.51,512.46 616.77,512.83 623.00,512.57 C659.32,511.11 685.96,477.09 678.61,441.58 C674.15,420.02 658.45,402.35 638.00,395.89 C629.65,393.25 615.18,393.05 606.07,395.45 C585.42,400.90 569.78,416.32 563.38,437.54 C560.72,446.38 560.98,462.45 563.93,471.00 C570.94,491.34 587.09,506.27 607.73,511.50 ZM 774.50 628.34 L 773.87 689.00 L 749.00 689.00 L 749.00 594.00 L 774.00 594.00 L 774.00 605.42 L 778.25 601.31 C785.00,594.79 794.79,591.00 804.87,591.00 C814.01,591.00 825.16,596.77 829.18,603.59 L 831.24 607.07 L 836.43 602.16 C842.78,596.15 845.97,594.45 854.71,592.39 C873.45,587.98 889.32,595.59 895.21,611.80 C896.70,615.90 896.92,621.13 896.96,652.75 L 897.00 689.00 L 872.13 689.00 L 871.81 657.75 C871.51,627.40 871.43,626.38 869.21,622.21 C866.16,616.50 861.91,614.01 855.20,614.00 C849.27,614.00 845.78,615.47 841.80,619.66 C836.27,625.49 836.00,627.33 836.00,659.47 L 836.00 689.00 L 810.00 689.00 L 809.98 657.75 C809.96,629.10 809.80,626.15 808.04,622.27 C805.46,616.59 801.06,614.00 794.00,614.02 C786.71,614.04 781.51,617.01 777.54,623.43 ZM 695.07 689.40 C686.63,691.89 674.05,691.48 665.10,688.43 C654.97,684.98 650.03,681.88 643.64,674.98 C629.58,659.79 626.38,638.37 635.35,619.48 C643.94,601.40 660.75,591.03 681.50,591.03 C696.02,591.03 707.78,595.62 717.09,604.93 C736.09,623.93 736.78,655.46 718.63,675.65 C713.68,681.15 704.08,686.76 695.07,689.40 ZM 580.36 689.43 C572.64,691.40 555.48,691.39 548.00,689.42 C544.97,688.62 538.27,685.94 533.10,683.45 C525.43,679.77 522.27,677.51 515.98,671.22 C504.38,659.60 498.47,646.07 497.33,628.51 C494.52,585.06 525.83,552.86 568.50,555.33 C584.89,556.28 597.56,561.39 608.85,571.60 C614.22,576.46 619.83,583.63 618.86,584.39 C616.07,586.57 599.05,598.00 598.60,598.00 C598.27,598.00 596.37,596.21 594.39,594.01 C581.66,579.92 563.59,576.34 547.03,584.62 C538.75,588.76 533.01,594.80 528.61,604.00 C525.64,610.21 525.50,611.07 525.50,623.05 C525.50,635.55 525.51,635.63 529.27,643.24 C535.25,655.34 545.10,662.65 558.85,665.21 C570.34,667.35 582.85,662.93 592.41,653.37 C595.46,650.32 598.33,647.97 598.78,648.16 C601.61,649.33 618.99,660.65 618.99,661.32 C619.01,663.12 612.79,671.00 607.88,675.42 C601.96,680.74 589.43,687.12 580.36,689.43 ZM 291.23 685.81 L 283.50 689.50 L 224.75 689.78 L 166.00 690.06 L 166.00 683.25 C166.00,676.04 167.26,673.07 171.30,670.76 C172.94,669.82 184.67,669.37 217.00,669.00 C260.37,668.50 260.51,668.49 265.36,666.11 C275.57,661.08 281.25,652.30 281.25,641.57 C281.24,634.22 279.15,628.85 274.21,623.50 C272.18,621.30 271.32,620.21 272.30,621.08 C273.97,622.55 274.68,622.08 282.87,614.08 C287.70,609.36 292.34,604.38 293.20,603.00 L 294.75 600.50 L 300.40 604.39 C307.32,609.15 311.05,613.74 315.19,622.59 C317.98,628.55 318.42,630.67 318.79,639.94 C319.15,648.89 318.88,651.49 317.03,657.00 C312.60,670.16 304.10,679.66 291.23,685.81 ZM 671.50 665.71 C681.50,670.51 694.54,666.95 700.81,657.73 C704.74,651.95 706.00,647.78 706.00,640.60 C706.00,629.84 699.34,619.15 690.28,615.35 C685.98,613.55 676.80,613.64 672.27,615.53 C651.11,624.37 650.63,655.70 671.50,665.71 ZM 639.42 277.13 C639.13,277.61 626.72,278.00 611.86,278.00 L 584.85 278.00 L 581.92 275.08 L 579.00 272.15 L 579.00 242.58 C579.00,226.31 579.39,213.00 579.86,213.00 C581.31,213.00 640.00,276.19 639.42,277.13 ZM 483.00 335.99 C483.00,337.79 482.34,338.00 476.59,338.00 L 470.17 338.00 L 456.86 323.50 C442.42,307.76 440.52,305.04 441.44,301.40 C442.00,299.16 442.50,299.00 448.77,298.99 C457.48,298.99 462.66,297.50 466.17,293.98 C471.55,288.61 470.52,288.00 456.12,288.00 C441.99,288.00 440.59,287.47 441.18,282.31 L 441.50 279.50 L 455.25 279.22 C462.81,279.07 469.00,278.61 469.00,278.19 C469.00,276.33 465.44,272.66 462.40,271.39 C460.56,270.63 455.72,270.00 451.61,270.00 C447.52,270.00 443.45,269.73 442.58,269.39 C440.22,268.49 440.48,262.35 442.93,261.04 C445.81,259.50 491.25,259.65 492.80,261.20 C493.46,261.86 494.00,263.57 494.00,265.00 C494.00,268.97 492.21,270.00 485.30,270.00 C481.83,270.00 479.00,270.24 479.00,270.54 C479.00,270.84 479.91,272.86 481.02,275.04 C483.01,278.93 483.13,279.00 488.58,279.00 L 494.11 279.00 L 493.50 287.50 L 488.15 288.00 C482.95,288.49 482.76,288.61 481.44,292.50 C479.45,298.36 472.48,304.51 465.55,306.53 C463.09,307.24 461.41,307.40 461.04,308.18 C460.52,309.29 462.68,311.65 469.06,318.63 C470.29,319.99 471.69,321.51 473.25,323.23 C478.78,329.33 483.00,334.85 483.00,335.99 ZM 627.54 468.75 C617.01,479.46 612.91,483.00 611.06,483.00 C607.81,483.00 583.00,458.49 583.00,455.28 C583.00,451.68 587.72,447.00 591.36,447.00 C594.00,447.00 595.84,448.29 602.00,454.50 C606.10,458.62 609.92,462.00 610.49,462.00 C611.06,462.00 619.39,454.12 629.00,444.50 C644.59,428.89 646.83,427.00 649.78,427.00 C653.89,427.00 658.00,430.79 658.00,434.58 C658.00,437.43 654.62,441.23 627.54,468.75 ZM 566.17 369.35 C564.51,370.85 558.74,371.00 503.86,371.00 L 500.15 371.00 C449.41,371.00 441.28,371.00 439.99,368.03 C439.74,367.46 439.75,366.79 439.75,365.98 C439.75,365.88 439.75,365.78 439.75,365.68 C439.75,365.41 439.74,365.15 439.74,364.91 C439.72,364.08 439.70,363.40 439.95,362.82 C441.18,359.99 448.95,359.99 495.25,360.00 C498.01,360.00 500.89,360.00 503.92,360.00 C550.56,360.00 565.89,360.29 566.80,361.20 C568.59,362.99 568.25,367.47 566.17,369.35 ZM 253.68 632.06 C249.79,633.82 246.61,633.96 208.22,633.98 C206.49,633.98 204.84,633.98 203.24,633.98 C174.11,634.00 166.85,634.01 166.03,631.70 C165.75,630.94 166.18,629.92 166.76,628.56 C166.86,628.34 166.96,628.11 167.06,627.86 C167.76,626.16 169.73,623.92 171.42,622.89 C174.31,621.12 177.20,621.01 217.75,621.00 C220.41,621.00 222.92,621.00 225.27,621.00 C253.15,620.99 260.30,620.98 260.99,623.09 C261.22,623.81 260.69,624.79 259.98,626.10 C259.81,626.42 259.62,626.76 259.43,627.13 C258.50,628.94 256.19,630.92 253.68,632.06 ZM 253.36 656.62 C250.74,657.72 241.49,658.00 208.03,658.00 L 166.00 658.00 L 166.00 655.40 C166.00,653.78 167.28,651.52 169.40,649.40 L 172.80 646.00 L 216.90 646.00 C259.27,646.00 261.00,646.07 261.00,647.87 C261.00,650.61 257.14,655.05 253.36,656.62 ZM 540.59 405.50 L 538.95 408.00 L 490.68 408.00 C454.46,408.00 442.10,407.70 441.20,406.80 C440.54,406.14 440.00,404.43 440.00,403.00 C440.00,401.57 440.54,399.86 441.20,399.20 C442.10,398.30 454.46,398.00 490.68,398.00 L 538.95 398.00 L 540.59 400.50 C542.11,402.82 542.11,403.18 540.59,405.50 ZM 600.80 330.80 C599.91,331.69 589.66,332.00 560.87,332.00 L 560.32 332.00 C527.49,332.00 520.74,332.00 519.36,329.28 C519.00,328.57 519.00,327.69 519.00,326.57 L 519.00 326.43 C519.00,325.31 519.00,324.43 519.36,323.72 C520.74,321.00 527.49,321.00 560.32,321.00 L 560.87 321.00 C589.66,321.00 599.91,321.31 600.80,322.20 C602.35,323.75 602.35,329.25 600.80,330.80 ZM 517.78 444.44 C515.87,445.78 510.56,446.00 480.00,446.00 C449.44,446.00 444.13,445.78 442.22,444.44 C439.37,442.45 439.20,437.50 441.93,436.04 C443.17,435.38 457.09,435.00 480.28,435.00 C514.28,435.00 516.80,435.12 518.35,436.83 C520.65,439.38 520.41,442.60 517.78,444.44 ZM 372.03 575.99 C365.93,579.10 360.09,578.30 355.16,573.69 C349.72,568.62 348.65,562.57 352.01,555.97 C355.80,548.55 366.28,545.71 373.10,550.27 C382.52,556.56 381.91,570.94 372.03,575.99 ZM 897.82 729.25 L 897.50 731.50 L 867.43 731.76 C850.89,731.91 837.06,731.72 836.68,731.35 C836.31,730.97 836.00,729.84 836.00,728.83 C836.00,727.09 837.61,727.00 867.07,727.00 L 898.14 727.00 ZM 233.00 730.00 C233.00,731.96 232.33,732.00 199.50,732.00 L 166.00 732.00 L 166.00 729.39 C166.00,727.43 166.39,726.94 167.58,727.39 C168.45,727.73 183.53,728.00 201.08,728.00 C232.33,728.00 233.00,728.04 233.00,730.00 Z" fill="#006A61"/>
  
  <!-- Primary Text (Charcoal Black) Elements -->
  <path d="M 639.42 277.13 C639.73,276.63 623.69,258.98 608.18,242.33 C624.58,259.55 641.29,277.70 642.84,280.50 C644.30,283.14 644.56,289.30 645.00,332.18 L 645.50 380.87 L 651.67 383.98 C642.16,379.64 631.70,377.34 620.85,377.50 L 629.50 377.23 L 629.76 335.11 L 630.02 293.00 L 606.26 292.98 C584.51,292.96 582.12,292.78 578.00,290.92 C572.40,288.38 569.42,285.64 566.65,280.50 C564.63,276.74 564.48,274.91 564.19,249.73 L 563.88 222.96 L 492.01 223.23 C421.11,223.50 420.11,223.53 417.32,225.57 C415.77,226.71 413.71,229.19 412.75,231.07 C411.11,234.28 411.00,242.51 411.01,360.50 C411.01,440.41 411.37,487.80 412.00,490.06 C412.54,492.01 414.37,494.94 416.05,496.56 C418.79,499.18 420.01,499.56 427.31,500.08 C438.13,500.85 555.89,501.14 558.63,500.40 C559.26,500.23 559.70,500.10 559.90,499.84 C559.91,500.12 559.83,500.30 559.65,500.37 C559.02,500.63 559.31,500.88 560.31,500.92 C561.46,500.97 561.86,501.45 561.40,502.25 C561.00,502.94 561.04,503.18 561.48,502.78 C561.55,502.71 561.72,502.74 561.97,502.84 L 561.48 505.08 C561.10,506.80 559.03,509.97 556.87,512.13 L 552.95 516.05 L 417.50 515.50 L 412.38 512.80 C409.56,511.31 405.43,508.02 403.20,505.49 C402.11,504.26 401.19,503.40 400.41,502.43 C395.97,496.96 395.97,487.89 396.00,386.34 C396.01,378.34 396.01,369.76 396.01,360.57 L 396.02 229.50 L 398.39 224.50 C401.27,218.42 406.96,212.80 413.00,210.08 C417.40,208.09 419.25,208.04 494.72,208.02 C566.22,208.00 572.20,208.13 575.61,209.75 C576.12,209.99 577.58,211.27 579.73,213.32 C579.32,215.45 579.00,227.79 579.00,242.58 L 579.00 272.15 L 581.92 275.08 L 584.85 278.00 L 611.86 278.00 C626.72,278.00 639.13,277.61 639.42,277.13 ZM 300.53 604.47 C304.74,607.38 307.78,610.26 310.47,614.13 C307.77,610.24 304.70,607.35 300.40,604.39 L 294.75 600.50 L 293.20 603.00 C292.34,604.38 287.70,609.36 282.87,614.08 C274.68,622.08 273.97,622.55 272.30,621.08 C271.32,620.21 272.18,621.30 274.21,623.50 C276.97,626.50 278.85,629.49 279.96,632.84 C278.79,629.39 276.77,626.33 273.70,623.17 C267.03,616.28 261.15,613.79 250.22,613.21 C245.12,612.94 240.75,612.40 240.51,612.01 C240.26,611.62 246.33,604.74 253.99,596.72 C261.90,588.44 268.61,580.50 269.53,578.33 C273.37,569.29 269.01,557.80 260.02,553.25 C255.79,551.11 254.45,551.00 232.29,551.00 L 209.00 551.00 L 209.00 569.30 C209.00,582.20 208.65,587.95 207.80,588.80 C206.95,589.65 200.76,590.00 186.30,590.00 L 166.00 590.00 L 166.00 520.00 L 213.75 520.02 C265.43,520.04 269.58,520.38 280.36,525.47 C287.22,528.72 294.78,535.42 299.00,542.00 C308.66,557.06 308.45,580.03 298.52,594.71 C296.59,597.58 295.00,600.09 295.00,600.29 C295.00,600.50 297.49,602.38 300.53,604.47 ZM 426.00 552.00 L 426.00 689.00 L 400.00 689.00 L 400.00 552.00 ZM 475.00 552.00 L 475.00 689.00 L 450.00 689.00 L 450.00 552.00 ZM 378.00 592.00 L 378.00 689.00 L 352.00 689.00 L 352.00 592.00 ZM 674.90 400.64 C683.18,409.29 689.37,419.86 693.16,432.00 C689.37,419.86 683.03,409.22 674.90,400.64 ZM 582.36 518.24 C577.58,515.43 573.17,512.23 569.59,508.89 C573.19,512.24 577.59,515.44 582.36,518.24 ZM 603.00 526.97 C596.19,525.22 588.93,522.10 582.36,518.24 C588.93,522.10 596.20,525.22 603.00,526.97 Z" fill="#1A1C1E"/>
  
  <!-- Secondary Text (Muted Gray) Elements -->
  <path d="M 396.43 738.43 C395.39,739.47 393.03,740.00 389.43,740.00 L 384.00 740.00 L 384.00 721.00 L 388.81 721.00 C395.39,721.00 397.48,722.67 396.72,727.33 C396.40,729.33 396.55,731.22 397.07,731.54 C398.55,732.46 398.15,736.70 396.43,738.43 ZM 672.17 738.35 C670.97,739.44 668.58,740.00 665.17,740.00 L 660.00 740.00 L 660.00 721.00 L 664.93 721.00 C668.08,721.00 670.43,721.57 671.43,722.57 C673.19,724.33 673.53,728.55 671.99,729.50 C671.37,729.89 671.56,730.70 672.49,731.64 C674.52,733.66 674.39,736.33 672.17,738.35 ZM 568.06 734.25 C568.01,739.31 567.76,740.00 566.00,740.00 C564.14,740.00 564.00,739.33 564.00,730.50 C564.00,721.65 564.14,721.00 566.01,721.00 C567.45,721.00 568.78,722.55 570.72,726.50 C572.20,729.53 573.68,732.00 574.00,732.00 C574.32,732.00 575.80,729.53 577.28,726.50 C579.22,722.55 580.55,721.00 581.99,721.00 C583.86,721.00 584.00,721.65 584.00,730.50 C584.00,739.33 583.86,740.00 582.00,740.00 C580.24,740.00 579.99,739.31 579.94,734.25 L 579.88 728.50 L 577.74 732.75 C576.56,735.10 574.89,737.00 574.00,737.00 C573.11,737.00 571.44,735.10 570.26,732.75 L 568.12 728.50 ZM 285.20 734.25 C284.98,738.47 284.51,740.00 283.45,740.00 C282.29,740.00 282.00,738.13 282.00,730.50 C282.00,722.03 282.20,721.00 283.79,721.00 C284.98,721.00 286.53,722.94 288.40,726.75 L 291.22 732.49 L 294.13 726.75 C296.19,722.66 297.60,721.00 299.02,721.00 C300.86,721.00 301.00,721.69 301.00,730.50 C301.00,739.33 300.86,740.00 299.00,740.00 C297.23,740.00 297.00,739.33 297.00,734.25 L 297.00 728.50 L 294.89 732.75 C293.59,735.38 292.11,737.00 291.00,737.00 C289.86,737.00 288.55,735.47 287.36,732.75 L 285.51 728.50 ZM 335.15 738.25 C335.07,739.21 334.33,740.00 333.50,740.00 C332.27,740.00 332.00,738.28 332.00,730.50 L 332.00 721.00 L 336.75 721.02 C342.13,721.03 343.19,721.53 344.95,724.87 C346.03,726.91 345.90,727.64 344.05,730.15 L 341.90 733.05 L 343.95 735.93 C346.48,739.49 346.50,740.00 344.08,740.00 C342.96,740.00 341.25,738.52 339.97,736.45 C337.81,732.96 335.61,732.30 335.41,735.08 C335.35,735.86 335.24,737.29 335.15,738.25 ZM 737.20 733.75 C736.98,738.41 736.54,740.00 735.45,740.00 C734.28,740.00 734.00,738.14 734.00,730.50 C734.00,722.12 734.21,721.00 735.75,721.01 C736.80,721.01 739.11,723.52 741.50,727.24 L 745.50 733.46 L 745.80 727.23 C746.06,721.82 746.35,721.00 748.05,721.00 C749.85,721.00 750.00,721.74 750.00,730.50 C750.00,739.27 749.85,740.00 748.04,740.00 C746.75,740.00 744.59,737.84 741.79,733.75 L 737.50 727.50 ZM 595.00 736.50 C595.00,739.33 594.62,740.00 593.00,740.00 C591.14,740.00 591.00,739.33 591.00,730.50 L 591.00 721.00 L 596.35 721.00 C602.35,721.00 605.00,722.89 605.00,727.17 C605.00,730.51 602.08,733.00 598.17,733.00 C595.21,733.00 595.00,733.24 595.00,736.50 ZM 467.00 734.00 C467.00,738.67 466.67,740.00 465.50,740.00 C464.27,740.00 464.00,738.28 464.00,730.50 C464.00,722.11 464.20,721.00 465.75,721.03 C466.75,721.05 469.32,723.71 471.75,727.25 L 476.00 733.43 L 476.00 727.22 C476.00,721.67 476.21,721.00 478.00,721.00 C479.86,721.00 480.00,721.67 480.00,730.50 C480.00,739.15 479.83,740.00 478.11,740.00 C476.90,740.00 474.84,737.86 472.36,734.01 C470.24,730.71 468.16,728.01 467.75,728.01 C467.34,728.00 467.00,730.70 467.00,734.00 ZM 691.93 739.54 C688.75,741.18 687.46,741.26 684.32,739.99 C681.02,738.67 680.00,735.85 680.00,728.07 C680.00,721.72 680.20,721.00 681.96,721.00 C683.69,721.00 683.95,721.82 684.21,728.15 C684.43,733.65 684.90,735.54 686.25,736.39 C687.52,737.19 688.48,737.19 689.75,736.39 C691.10,735.54 691.57,733.65 691.79,728.15 C692.05,721.82 692.31,721.00 694.04,721.00 C695.80,721.00 696.00,721.72 696.00,727.92 C696.00,736.35 695.54,737.67 691.93,739.54 ZM 501.75 739.81 C500.51,739.83 498.38,740.09 497.00,740.39 C491.42,741.62 487.00,737.13 487.00,730.23 C487.00,724.23 490.25,721.00 496.30,721.00 C499.46,721.00 501.21,721.58 502.56,723.06 C504.13,724.80 504.20,725.26 502.98,726.01 C502.05,726.59 500.98,726.39 499.94,725.45 C494.34,720.38 487.11,728.42 491.56,734.78 C493.27,737.23 497.81,737.79 499.80,735.80 C501.56,734.04 501.27,733.00 499.00,733.00 C497.89,733.00 497.00,732.33 497.00,731.50 C497.00,730.45 498.06,730.00 500.50,730.00 L 504.00 730.00 L 504.00 734.89 C504.00,739.30 503.77,739.79 501.75,739.81 ZM 311.50 738.00 C311.15,739.10 310.05,740.00 309.06,740.00 C307.44,740.00 307.63,738.99 310.87,730.50 C313.78,722.88 314.89,721.01 316.50,721.01 C318.11,721.01 319.22,722.88 322.13,730.50 C325.52,739.39 325.62,740.00 323.78,740.00 C322.65,740.00 321.59,739.15 321.29,738.00 C320.87,736.39 319.93,736.00 316.45,736.00 C313.01,736.00 312.01,736.41 311.50,738.00 ZM 543.78 739.44 C540.79,741.53 537.72,741.40 534.86,739.07 C533.01,737.56 532.76,736.88 533.71,735.91 C534.66,734.94 535.23,734.94 536.40,735.92 C538.30,737.49 542.50,736.94 542.50,735.11 C542.50,734.34 541.83,733.40 541.00,733.02 C534.52,730.01 533.47,729.22 533.17,727.13 C532.67,723.68 535.67,721.00 540.03,721.00 C544.30,721.00 547.38,723.53 544.94,725.03 C544.10,725.56 543.13,725.53 542.56,724.96 C542.03,724.43 540.57,724.00 539.30,724.00 C535.38,724.00 536.67,726.93 541.50,729.00 C545.60,730.76 546.00,731.24 546.00,734.41 C546.00,736.87 545.35,738.34 543.78,739.44 ZM 769.00 738.50 C769.00,739.67 767.67,740.00 763.00,740.00 L 757.00 740.00 L 757.00 721.00 L 763.00 721.00 C767.67,721.00 769.00,721.33 769.00,722.50 C769.00,723.58 767.89,724.00 765.00,724.00 C761.40,724.00 761.00,724.25 761.00,726.50 C761.00,728.69 761.43,729.00 764.50,729.00 C766.94,729.00 768.00,729.45 768.00,730.50 C768.00,731.55 766.94,732.00 764.50,732.00 C761.43,732.00 761.00,732.31 761.00,734.50 C761.00,736.75 761.40,737.00 765.00,737.00 C767.89,737.00 769.00,737.42 769.00,738.50 ZM 272.78 739.44 C269.35,741.84 264.00,740.95 261.80,737.60 C260.79,736.06 263.93,734.53 265.30,735.90 C266.85,737.45 270.68,737.27 271.31,735.62 C271.96,733.95 270.18,732.00 268.02,732.00 C263.14,732.00 260.25,725.89 263.57,722.57 C265.59,720.56 271.37,720.54 273.04,722.54 C274.75,724.61 272.68,727.08 270.80,725.20 C268.89,723.29 266.00,723.74 266.00,725.96 C266.00,727.40 267.05,728.21 269.90,728.97 C272.04,729.55 274.07,730.73 274.40,731.59 C275.61,734.75 274.95,737.92 272.78,739.44 ZM 786.42 738.88 C783.06,741.53 779.91,741.58 776.86,739.02 C774.88,737.36 774.74,736.89 775.97,736.08 C776.92,735.45 777.86,735.47 778.66,736.13 C780.38,737.56 784.42,736.80 784.77,734.99 C784.95,734.04 783.45,732.73 780.78,731.49 C777.43,729.93 776.43,728.89 776.18,726.69 C776.00,725.14 776.39,723.23 777.05,722.44 C778.50,720.70 785.13,720.53 786.80,722.20 C788.93,724.33 788.09,725.04 783.75,724.77 C778.02,724.41 778.14,726.53 784.00,729.34 C789.66,732.06 790.56,735.62 786.42,738.88 ZM 804.48 739.83 C801.32,741.27 800.07,741.26 797.50,739.81 C794.62,738.17 793.88,736.65 795.52,735.73 C796.37,735.25 797.88,735.53 799.24,736.42 C800.60,737.31 802.06,737.58 802.86,737.09 C805.01,735.76 803.74,732.71 800.69,731.89 C796.59,730.80 795.00,729.13 795.00,725.91 C795.00,722.69 797.31,721.00 801.73,721.00 C804.45,721.00 807.00,722.52 807.00,724.14 C807.00,724.55 805.14,724.79 802.86,724.69 C796.99,724.42 796.78,726.55 802.44,728.97 C804.97,730.06 807.31,731.64 807.63,732.48 C808.64,735.12 807.15,738.61 804.48,739.83 ZM 642.00 738.50 C642.00,739.67 640.67,740.00 636.00,740.00 L 630.00 740.00 L 630.00 721.00 L 636.00 721.00 C640.67,721.00 642.00,721.33 642.00,722.50 C642.00,723.61 640.83,724.00 637.43,724.00 C633.26,724.00 632.89,724.20 633.18,726.25 C633.44,728.06 634.24,728.56 637.25,728.81 C642.56,729.25 642.42,732.00 637.09,732.00 C633.90,732.00 633.24,732.32 633.51,733.75 C633.70,734.71 633.88,735.84 633.92,736.25 C633.97,736.66 635.80,737.00 638.00,737.00 C640.89,737.00 642.00,737.42 642.00,738.50 ZM 713.42 738.88 C711.94,740.05 710.00,740.99 709.12,740.99 C706.92,740.97 702.74,738.76 702.29,737.37 C701.70,735.60 705.00,734.85 706.56,736.41 C707.33,737.19 708.87,737.58 709.98,737.29 C713.39,736.40 712.31,733.59 707.75,731.47 C704.43,729.93 703.43,728.89 703.18,726.69 C702.73,722.80 704.58,721.00 709.00,721.00 C713.22,721.00 716.40,723.52 714.03,724.98 C713.26,725.46 711.94,725.35 710.97,724.75 C709.11,723.59 706.00,724.33 706.00,725.95 C706.00,726.51 708.14,727.98 710.75,729.23 C716.66,732.06 717.64,735.57 713.42,738.88 ZM 361.00 732.00 C361.00,739.33 360.83,740.00 359.00,740.00 C357.17,740.00 357.00,739.33 357.00,732.00 C357.00,724.13 356.96,724.00 354.50,724.00 C352.94,724.00 352.00,723.43 352.00,722.50 C352.00,721.30 353.50,721.00 359.50,721.00 C365.50,721.00 367.00,721.30 367.00,722.50 L 361.00 724.00 ZM 428.00 738.50 C428.00,739.67 426.67,740.00 422.00,740.00 L 416.00 740.00 L 416.00 730.50 C416.00,721.67 416.14,721.00 418.00,721.00 C419.83,721.00 420.00,721.67 420.00,729.00 L 420.00 737.00 L 424.00 737.00 C426.89,737.00 428.00,737.42 428.00,738.50 ZM 623.00 738.50 C623.00,739.67 621.67,740.00 617.00,740.00 L 611.00 740.00 L 611.00 730.50 C611.00,721.67 611.14,721.00 613.00,721.00 C614.83,721.00 615.00,721.67 615.00,729.00 L 615.00 737.00 L 619.00 737.00 C621.89,737.00 623.00,737.42 623.00,738.50 ZM 446.00 738.50 C446.00,739.65 444.74,740.00 440.62,740.00 C434.20,740.00 434.06,739.73 434.77,728.67 C435.13,723.09 435.64,721.00 436.63,721.00 C437.68,721.00 438.00,722.90 438.00,729.00 L 438.00 737.00 L 442.00 737.00 C444.89,737.00 446.00,737.42 446.00,738.50 ZM 557.00 730.50 C557.00,739.33 556.86,740.00 555.00,740.00 C553.14,740.00 553.00,739.33 553.00,730.50 C553.00,721.67 553.14,721.00 555.00,721.00 C556.86,721.00 557.00,721.67 557.00,730.50 ZM 726.00 730.50 C726.00,738.28 725.73,740.00 724.50,740.00 C723.27,740.00 723.00,738.28 723.00,730.50 C723.00,722.72 723.27,721.00 724.50,721.00 C725.73,721.00 726.00,722.72 726.00,730.50 ZM 408.00 730.50 C408.00,738.28 407.73,740.00 406.50,740.00 C405.27,740.00 405.00,738.28 405.00,730.50 C405.00,722.72 405.27,721.00 406.50,721.00 C407.73,721.00 408.00,722.72 408.00,730.50 ZM 456.00 730.50 C456.00,738.28 455.73,740.00 454.50,740.00 C453.27,740.00 453.00,738.28 453.00,730.50 C453.00,722.72 453.27,721.00 454.50,721.00 C455.73,721.00 456.00,722.72 456.00,730.50 ZM 595.00 727.00 C595.00,729.83 595.27,730.10 597.75,729.82 C599.93,729.57 600.50,728.98 600.50,727.00 C600.50,725.02 599.93,724.43 597.75,724.18 C595.27,723.90 595.00,724.17 595.00,727.00 ZM 387.00 734.50 C387.00,736.86 387.33,737.10 390.25,736.81 C392.73,736.57 393.50,736.03 393.50,734.50 C393.50,732.97 392.73,732.43 390.25,732.19 C387.33,731.90 387.00,732.14 387.00,734.50 ZM 663.00 734.50 C663.00,736.86 663.33,737.10 666.25,736.81 C668.73,736.57 669.50,736.03 669.50,734.50 C669.50,732.97 668.73,732.43 666.25,732.19 C663.33,731.90 663.00,732.14 663.00,734.50 ZM 336.00 727.00 C336.00,729.27 336.46,730.00 337.88,730.00 C338.91,730.00 340.32,729.33 341.00,728.50 C342.56,726.62 340.74,724.00 337.88,724.00 C336.46,724.00 336.00,724.73 336.00,727.00 ZM 387.00 726.50 C387.00,728.78 387.37,729.09 389.75,728.82 C391.73,728.59 392.50,727.94 392.50,726.50 C392.50,725.06 391.73,724.41 389.75,724.18 C387.37,723.91 387.00,724.22 387.00,726.50 ZM 663.00 726.50 C663.00,728.78 663.37,729.09 665.75,728.82 C667.73,728.59 668.50,727.94 668.50,726.50 C668.50,725.06 667.73,724.41 665.75,724.18 C663.37,723.91 663.00,724.22 663.00,726.50 ZM 314.55 730.75 C313.96,732.68 314.23,733.00 316.43,733.00 C316.59,733.00 316.74,733.00 316.88,733.00 C317.93,733.01 318.51,733.01 318.74,732.72 C319.03,732.36 318.74,731.54 318.08,729.66 C318.01,729.46 317.94,729.25 317.86,729.03 C316.68,725.65 316.01,726.00 314.55,730.75 ZM 516.00 738.36 C516.00,740.45 513.34,741.12 511.92,739.40 C511.03,738.33 510.99,737.61 511.78,736.82 C513.16,735.44 516.00,736.48 516.00,738.36 ZM 818.50 738.43 C818.50,740.42 816.87,741.54 815.69,740.35 C814.22,738.88 814.99,735.85 816.75,736.19 C817.71,736.38 818.50,737.38 818.50,738.43 Z" fill="#6B7280"/>
</svg>
